<svg id="beautiful-lady" xmlns="http://www.w3.org/2000/svg" xmlns:xlink="http://www.w3.org/1999/xlink" width="544" height="354.209" viewBox="0 0 544 354.209">
  <defs>
    <linearGradient id="linear-gradient" y1="0.5" x2="1" y2="0.5" gradientUnits="objectBoundingBox">
      <stop offset="0" stop-color="#1b1464"/>
      <stop offset="1" stop-color="#3fa9f5" stop-opacity="0.42"/>
    </linearGradient>
  </defs>
  <g id="Layer_2" data-name="Layer 2" transform="translate(0.002 0.001)">
    <g id="Layer_1" data-name="Layer 1" transform="translate(-0.002 -0.001)">
      <path id="Path_1" data-name="Path 1" d="M254.891,12.573c-27.415,19.137-31.4,56.734-70.274,66.474-21.879,5.491-36.058-2.551-50.337,9.5-16.7,14.1-6.5,32.906-21.841,51.281-17.211,20.622-38.876,7.493-67.418,24.689C15.23,182.439-7.448,224.574,2.284,260.442c9.26,34.109,44.481,50.093,49.377,52.233,49.979,21.81,79.831-17.264,138.651,0,42.973,12.611,35.6,35.975,70.274,40.833,54.015,7.57,74.333-48.814,150.021-50.329,22.549-.449,31.352,4.341,54.129-.952,3.5-.815,51.281-12.459,70.274-43.681,29.867-49.126-21.155-130.61-58.859-170.971C414.553,21.642,305.9-23.014,254.891,12.573Z" transform="translate(0.002 0.001)" fill="url(#linear-gradient)"/>
      <path id="Path_2" data-name="Path 2" d="M200.6,442.02c-31.139-.723-65.956-1.706-103.469-2.917v-.213L200.6,441.807Z" transform="translate(-23.161 -104.662)"/>
      <path id="Path_3" data-name="Path 3" d="M97.14,387.4V351.07l87.393,3.693a34.672,34.672,0,0,0,5.407,12.71,36.584,36.584,0,0,0,19.975,14.035,7.189,7.189,0,0,0-2.886,2.216,51.975,51.975,0,0,1-13.2,6.892c-15.048,5.247-28.39,1.82-37.254,0C142.8,387.8,123.192,385.445,97.14,387.4Z" transform="translate(-23.164 -83.719)" fill="#ebe4e4"/>
      <path id="Path_4" data-name="Path 4" d="M458.991,426.074h0c-.571,6.465-52.629,10.319-218.8,6.595l-7-.16.312-.366.358-.419.282-.358c.114-.129.213-.267.327-.411l.137-.183c.053-.061.1-.129.145-.19s.251-.335.373-.51.114-.16.175-.244l.168-.251.175-.251c.259-.388.51-.762.762-1.2.084-.129.168-.274.251-.419.175-.3.343-.6.51-.906.038-.076.076-.152.122-.228q.236-.465.48-.96c.19-.4.373-.822.541-1.249a34.178,34.178,0,0,0,2.163-11.514h0a54.784,54.784,0,0,0-.388-8.3h0a2.94,2.94,0,0,1-.038-.4,13.791,13.791,0,0,1-.282-2.9h0v-.883a2.445,2.445,0,0,1,.053-.624v-.19h0l6.031.168h0l6.724.183,9.138.244h0l7.768.213,9.763.259,8.141.228h.647l37.223,1.005h0l29.745.807h1.173c-2.406.64-4.775,1.158-7.082,1.561h-.061a34.05,34.05,0,0,1-5.376.762h0a99.831,99.831,0,0,1-14.9.564c-.259-.244-.533-.51-.815-.8q-7.356-.091-15.314.168h-.091c-13.273.564-17.949,1.295-21.323,1.4h0q-2.879.289-5.666.609a8.071,8.071,0,0,1-.053-1.142l-.807-.168h0c-8.377-1.721-15.055-3.412-19.716-4.668l-.609-.168L250.347,401l-.228.129c5.529-.175,9.412,2.01,13.357,3.716a65.605,65.605,0,0,0,21.155,5.064l113.323-6.161,59.125,1.6h0c.145,1.2.3,2.559.487,4.082C458.222,416.4,457.224,423.34,458.991,426.074Z" transform="translate(-55.608 -95.281)" fill="#d0c4c1"/>
      <path id="Path_5" data-name="Path 5" d="M244.343,401.709l8.118-.129-.228.129h0a21.323,21.323,0,0,0-7.981,1.889h0l-.1.046h0l-.107.046a6.694,6.694,0,0,1-2.186-1.942l2.49-.038Z" transform="translate(-57.675 -95.765)" fill="#d0c4c1"/>
      <path id="Path_6" data-name="Path 6" d="M376.285,399.12a78.9,78.9,0,0,1-10.235,3.488c-2.406.64-4.775,1.158-7.082,1.561h-.061a34.049,34.049,0,0,1-5.376.762h0a99.828,99.828,0,0,1-14.9.564c-.259-.244-.533-.51-.815-.8q-7.356-.091-15.314.168h-.091c-13.273.563-17.949,1.295-21.323,1.4h0q-2.879.289-5.666.609a8.075,8.075,0,0,1-.053-1.142l-.807-.168h0c-8.377-1.721-15.055-3.412-19.716-4.668l-.609-.168,6.092-.1,8.826-.145,8.476-.129h.716l35.335-.571h0l38.632-.617Z" transform="translate(-65.397 -95.178)" fill="#d0c4c1"/>
      <path id="Path_7" data-name="Path 7" d="M461.219,400.21l-59.125-1.6-113.323,6.161a65.607,65.607,0,0,1-21.17-5.064c-3.945-1.706-7.829-3.891-13.357-3.716q.107,0,.114-.068.069-.282-4-1.584l18.124,1.295.609.168c4.661,1.256,11.347,2.947,19.716,4.668h0l.807.168a8.071,8.071,0,0,0,.053,1.142q2.787-.32,5.666-.609h0c3.381-.107,8.057-.838,21.323-1.4h.091c5.331-.183,10.41-.228,15.314-.168.282.289.556.556.815.8a99.827,99.827,0,0,0,14.9-.563h0a34.042,34.042,0,0,0,5.376-.762h.061c2.285-.4,4.676-.921,7.082-1.561a78.9,78.9,0,0,0,10.235-3.488,74.236,74.236,0,0,0,11.088-5.78,84.942,84.942,0,0,0,8.049-5.567,109.538,109.538,0,0,1,18.185-4.2h.1c6.092-.761,9.9-.495,13.22-.876h0l1.523.046c5.879.19,10.479.335,14.3.716h0A40.423,40.423,0,0,1,449.18,381.6a26.425,26.425,0,0,1,7.9,6.587h0l1.18,2.087a21.317,21.317,0,0,1,.982,2.285h0a.847.847,0,0,0,.076.221A40.117,40.117,0,0,1,461.219,400.21Z" transform="translate(-59.702 -90.046)" fill="#ebe4e4"/>
      <path id="Path_8" data-name="Path 8" d="M274.6,400.257a70,70,0,0,0,14.233,4.935c-8.377-1.721-15.055-3.412-19.716-4.668l-.609-.168-18.124-1.295a11.149,11.149,0,0,1,5.475-1.424c1.234,0,1.691.282,3.259.343,2.437.091,2.741-.472,4.874-.564,3.427-.152,6.549,1.119,9.671,2.437Z" transform="translate(-59.707 -94.769)" fill="#ebe4e4"/>
      <path id="Path_9" data-name="Path 9" d="M307.658,408.383q-2.879.289-5.666.609a8.075,8.075,0,0,1-.053-1.142h0A22.57,22.57,0,0,0,307.658,408.383Z" transform="translate(-72.002 -97.26)" fill="#ebe4e4"/>
      <path id="Path_10" data-name="Path 10" d="M368.625,406.671a99.819,99.819,0,0,1-14.9.564c-.259-.244-.533-.51-.815-.8q-7.356-.091-15.314.168c6.42-.274,11.3-.358,15.139-.343h0C361.931,406.29,365.053,406.861,368.625,406.671Z" transform="translate(-80.507 -96.88)" fill="#ebe4e4"/>
      <path id="Path_11" data-name="Path 11" d="M421.954,384.22a84.942,84.942,0,0,1-8.049,5.567,74.224,74.224,0,0,1-11.088,5.78,78.9,78.9,0,0,1-10.235,3.488c-2.406.64-4.775,1.158-7.082,1.561a52.705,52.705,0,0,0,5.909-1.592,39.738,39.738,0,0,0,7.394-3.389C404.432,392.361,409.077,388.363,421.954,384.22Z" transform="translate(-91.93 -91.625)" fill="#ebe4e4"/>
      <path id="Path_12" data-name="Path 12" d="M507.724,381.786a40.423,40.423,0,0,0-12.184-3.236C500.566,379.037,504.267,379.921,507.724,381.786Z" transform="translate(-118.171 -90.273)" fill="#ebe4e4"/>
      <path id="Path_13" data-name="Path 13" d="M205.323,423.622a30.019,30.019,0,0,1-4.569,6.9H200.6L97.14,427.575V396.946c26.052-1.957,45.692.4,59.4,3.221,8.864,1.82,22.206,5.247,37.254,0a51.973,51.973,0,0,0,13.228-6.861c1.074-.762,2.033-1.523,2.886-2.216a14.515,14.515,0,0,0-2.589,8.194h0C207.31,400.3,209.633,414.629,205.323,423.622Z" transform="translate(-23.164 -93.263)" fill="#d0c4c1"/>
      <path id="Path_14" data-name="Path 14" d="M242.635,400.38,240.472,432.9l-6.092-.16a100.521,100.521,0,0,0,8.263-32.357Z" transform="translate(-55.892 -95.478)" fill="#bab1b7"/>
      <path id="Path_15" data-name="Path 15" d="M97.14,270.991l124.738-3.221a14.34,14.34,0,0,1,3.221,3.686c3.122,5.2,1.858,11.149,1.378,13.791-1.081,5.932-1.8,14.705-.883,28.4-.762-.388-15.093-7.151-28.291,1.257-10.616,6.77-12.512,18.277-12.771,20.036L97.14,331.205Z" transform="translate(-23.164 -63.855)" fill="#e3d8d8"/>
      <path id="Path_16" data-name="Path 16" d="M266.535,287.586a10.235,10.235,0,0,1,3.869-4.676c2.155-1.31,4.318-1.272,6.328-1.264,3,0,7.3-.061,12.992-.4-.807,2.01-1.607,4.021-2.414,6.024l-17.477.579a3.168,3.168,0,0,0-1.211,1.317,3.472,3.472,0,0,0,.038,2.909l3.366,27.339-6.526-2.566C263.763,303.075,264.319,292.3,266.535,287.586Z" transform="translate(-63.069 -67.069)" fill="#e3d8d8"/>
      <path id="Path_17" data-name="Path 17" d="M272.254,282.28c-.213.129-4.9,3.168-5.94,6.564a18.185,18.185,0,0,0-.647,4.112v1.378c.122,4.478,2.178,11.461,1.234,17.561a19.1,19.1,0,0,1-1.569,5.171c-.556-2.9-5.331-28.831,4.676-34.025A7.835,7.835,0,0,1,272.254,282.28Z" transform="translate(-62.886 -67.315)" fill="#bab1b7"/>
      <path id="Path_18" data-name="Path 18" d="M492.419,290.346c0-2.582-.335-6.976-3.305-9.047a7.25,7.25,0,0,0-4.386-1.158c-5.407.1-22.328,1.1-45.258,2.8.114-1.074.206-2.285.259-3.732h0l47.062-1.812a8.88,8.88,0,0,1,3.686,1.607c4.112,3.115,3.724,8.841,3.678,9.428a6.3,6.3,0,0,0,.107.838Z" transform="translate(-104.8 -66.151)" fill="#c7b1a5"/>
      <path id="Path_19" data-name="Path 19" d="M488.954,291.229c-4.965,2.917-11.1,6.724-18.711,11.651-21.574,13.966-31.055,21.437-30.522,30.1-1.911-5.9-5.788-11.073-10.875-13.54a19.253,19.253,0,0,0-2.46-.815l-1.447-.434h.076c3.473-.426,6.892-1.005,9.07-3.335a5.651,5.651,0,0,0,1.135-1.729h0a16.541,16.541,0,0,0,1.1-6.656h0c-.091-.891-.228-1.843-.388-2.871h0a75.708,75.708,0,0,1-.975-8.948h0c.107-4.927.7-7.113,1.074-10.73,22.93-1.706,39.851-2.7,45.258-2.8a7.25,7.25,0,0,1,4.364,1.15C488.6,284.254,488.954,288.64,488.954,291.229Z" transform="translate(-101.335 -67.034)" fill="#e3d8d8"/>
      <path id="Path_20" data-name="Path 20" d="M433.981,383.37l-.061-.206c2.635-.876,5.376-1.645,8.148-2.285h0l.053.206C439.434,381.733,436.7,382.494,433.981,383.37Z" transform="translate(-103.476 -90.828)"/>
      <path id="Path_21" data-name="Path 21" d="M440.064,345.815c-.114-.4-.236-.762-.366-1.173-3.587-10.578-13.814-14.469-14.789-14.842l1.447.434a19.243,19.243,0,0,1,2.46.815c5.087,2.467,8.963,7.615,10.875,13.54h0C439.828,344.992,439.95,345.4,440.064,345.815Z" transform="translate(-101.328 -78.647)" fill="gray"/>
      <path id="Path_22" data-name="Path 22" d="M518.035,324.877a46.034,46.034,0,0,0-15.01,24.057,44.984,44.984,0,0,0-.259,19.8,40.422,40.422,0,0,0-12.184-3.237h0a132.19,132.19,0,0,0-15.832-.762h0c9.984-1.18,18.277-11.651,34.947-32.578,2.323-2.917,4.424-5.681,6.26-8.377Z" transform="translate(-113.213 -77.212)" fill="#818181"/>
      <path id="Path_23" data-name="Path 23" d="M535.7,411.507c-2.01,3.412-2.955,3.99-3.45,3.808-1.074-.343,0-4.158-2.071-5.75l-.129-.1c-1.287-.868-2.483.038-3.808-.541a2.6,2.6,0,0,1-1.119-1c-1.767-2.734-.762-9.679-1.378-16.533-.076-.838-.213-2.285-.487-4.082h0a40.118,40.118,0,0,0-1.82-7.433.638.638,0,0,0-.076-.221h0a21.289,21.289,0,0,0-.982-2.285,18.628,18.628,0,0,0-1.18-2.087h0a18.849,18.849,0,0,0-7.9-6.587,52.9,52.9,0,0,1,.259-19.8A53.589,53.589,0,0,1,524.5,323.71l7.333,4.021,2.962,1.622Q535.247,370.46,535.7,411.507Z" transform="translate(-121.735 -77.195)" fill="#ebe4e4"/>
      <path id="Path_24" data-name="Path 24" d="M464.568,377.89h0Zm0,0h0Z" transform="translate(-110.776 -90.115)" fill="#2e3192"/>
      <path id="Path_25" data-name="Path 25" d="M464.568,377.89h0Zm0,0h0Z" transform="translate(-110.776 -90.115)" fill="#2e3192"/>
      <path id="Path_26" data-name="Path 26" d="M457.142,355.193h0Zm55.8-71.705c-1.652-1.409-4.79-1.8-20.127,7.044l-1.843,1.081c-4.965,2.917-11.1,6.724-18.711,11.651-21.574,13.966-31.055,21.437-30.522,30.1h0c.137.4.259.815.373,1.226a1.584,1.584,0,0,0,.107.4c.084.312.152.632.221.944a26.814,26.814,0,0,1,.541,3.549h0a15.492,15.492,0,0,1,.076,2.376h0a23.51,23.51,0,0,1-.465,4.333c-1.142,5.453-4.211,9.458-8.042,12.778l-.038.038c-.107.091-.206.183-.3.259s-.419.358-.64.533l-.175.137a109.538,109.538,0,0,1,18.185-4.2h.1c6.092-.762,9.9-.495,13.22-.876h0c9.984-1.18,18.277-11.651,34.947-32.578,2.323-2.917,4.424-5.681,6.26-8.377,4.47-6.61,7.4-12.984,8.224-20.8C514.767,288.94,515.094,285.331,512.939,283.488Zm-79.085,76.358c2.041-.678,4.805-1.523,8.148-2.285C439.4,358.179,436.672,358.932,433.855,359.846Zm12.725-3.267h-.091l-.335.061.51-.1Z" transform="translate(-103.35 -67.419)" fill="#2e3192"/>
      <path id="Path_27" data-name="Path 27" d="M464.538,377.933l-.038-.213h.19v.213h-.16Z" transform="translate(-110.769 -90.075)"/>
      <path id="Path_28" data-name="Path 28" d="M541.722,412.751c-2.01,3.412-2.955,3.99-3.45,3.808-1.074-.343,0-4.158-2.071-5.75l-.129-.1a4.057,4.057,0,0,1,.221-.465c1.95-32.418,1.249-47.542-.091-55.036-1.272-7.09.617-14.408.457-21.612,0-.952-.076-3.313,1.18-4.668l2.962,1.622Q541.273,371.705,541.722,412.751Z" transform="translate(-127.762 -78.44)" fill="#c7b1a5"/>
      <path id="Path_29" data-name="Path 29" d="M344.142,188.572a9.517,9.517,0,0,1,.343,7.242c-1.934,4.668-7.9,5.8-11.423,5.331-2.429-.312-6.778-1.416-7.615-4.143-.434-1.455-3.206-3.869-4.31-4.143-3.351-.815-5.14-12.184-3.122-21.9,2.528-12.184,13.174-32.35,32.784-33.979,20.8-1.721,33.759,18.863,36.218,22.77,7.966,12.641,7.2,24.75,6.732,32.251-.175,2.688-.632,7.349-3.282,8.453-2.521,1.059-4.683-2.094-9.291-1.523-3.488.457-4.082,2.513-6.359,2.109-4.074-.708-5.887-7.928-6.092-8.719-1.4-5.818.762-8.148,1.378-14.659,1.051-11.24-4.272-20.675-8.666-25.671-2.079-2.368-4.356-4.881-8.065-5.544-5.171-.921-10.707,2.193-13.106,6.382-.906,1.576-.762,2.285-1.523,8.453-1.4,10.661-2.193,11-1.9,13.966C337.174,178.093,338.4,183,344.142,188.572Z" transform="translate(-75.633 -32.64)" fill="#42210b"/>
      <path id="Path_30" data-name="Path 30" d="M407.948,288.759a33.694,33.694,0,0,1-.7-5.453c-.251-5.057.678-8.651,1.957-13.624.457-1.774.975-3.808,1.523-6.092a56.068,56.068,0,0,0,1.127-6.237,42.364,42.364,0,0,1,.876-4.82,85.7,85.7,0,0,1,7.493-20.013l.19.1a85.23,85.23,0,0,0-7.471,19.96,40.308,40.308,0,0,0-.876,4.805,56.767,56.767,0,0,1-1.127,6.26c-.518,2.285-1.036,4.3-1.523,6.092-1.279,4.958-2.208,8.537-1.957,13.563a34.988,34.988,0,0,0,.693,5.414Z" transform="translate(-97.106 -55.449)"/>
      <path id="Path_31" data-name="Path 31" d="M397.249,310.352l-.129-.168a32.692,32.692,0,0,1,22.5-6.4v.213a32.441,32.441,0,0,0-22.351,6.359Z" transform="translate(-94.701 -72.412)"/>
      <path id="Path_32" data-name="Path 32" d="M404.663,265c-.053,1.447-.145,2.658-.259,3.739-.373,3.61-.967,5.8-1.074,10.722h0v1.1c0,5.133,1.211,7.493,1.378,10.76a16.5,16.5,0,0,1-1.1,6.648h0a5.827,5.827,0,0,1-1.142,1.729c-2.178,2.33-5.6,2.909-9.07,3.336h-.076l-.861.1c-5.331.647-5.826-.807-11.035-.518-7.859.442-11.979,4.021-14.69,2.833h0a2.8,2.8,0,0,1-.663-.411,1.572,1.572,0,0,1-.2-.19,3.155,3.155,0,0,1-.289-.335v-.084h0l-.084-.145a2.536,2.536,0,0,1-.236-.6V303.6c-.137-.541-.175-1.135-.312-1.782h0a5.331,5.331,0,0,0-1-2.163h0l-.2-.251c-2.673-3.206-7.372-3.008-7.889-3.808h0a.282.282,0,0,1-.046-.16.266.266,0,0,1,.069-.175c.343-.419,1.942-.571,4.76-1.523l.244-.091h0a51.91,51.91,0,0,0,4.965-2.224l.4-.152.373-.129.19-.061h.053c.3-.091.632-.183,1.005-.259,2.467-.548,4.181-.366,4.683-.548a.17.17,0,0,0,.152-.145.282.282,0,0,0-.1-.206h0c-.571-.586-3.549-1.523-6.092-2.033-.525-.114-1.1-.221-1.706-.32h-.069a40.474,40.474,0,0,0-9.778-.358l-1.523-13.449h-.091l-59.239-1.523h0a36.254,36.254,0,0,0,2.414-6.016c.122-.4.236-.807.343-1.226a38.221,38.221,0,0,0,1.211-10.342v-.327c.175-15.741,7.242-23.135,7.242-23.135,4.463-4.615,6.4-1.081,20.637-7.783,1.409-.663,2.78-1.348,4.059-2a31.7,31.7,0,0,0,2.285,15.885c2.064,4.744,5.2,8.415,8.628,12.413.533.624,1.051,1.211,1.523,1.759l.579.632c.274.3.548.594.807.868.822.868,1.561,1.607,2.17,2.208a38.381,38.381,0,0,0,14.659-10.006c2.643-2.955,3.77-5.224,6.039-8.8a107.375,107.375,0,0,1,13.86-17.386l.708.16h0c.99.236,2.285.571,3.808,1.043,4.706,1.523,11.172,4.463,14.926,10.486,1.668,2.681,2.353,6.854,3.625,15.185a109.376,109.376,0,0,1,1.2,14.659C404.732,262.191,404.717,263.692,404.663,265Z" transform="translate(-70.138 -52.222)" fill="#f4dba6"/>
      <path id="Path_33" data-name="Path 33" d="M391.487,218.395a107.772,107.772,0,0,0-13.86,17.386c-2.285,3.572-3.389,5.833-6.031,8.8a38.487,38.487,0,0,1-14.637,10.007c-.762-.762-1.767-1.752-2.879-2.962l-.579-.632c-.495-.548-1.013-1.135-1.523-1.759-3.427-4-6.564-7.669-8.628-12.413a31.7,31.7,0,0,1-2.285-15.885v-.023c.5-.3,1.02-.6,1.523-.891h0c2.955-1.523,5.239-2.6,6.13-2.384h.107a.419.419,0,0,1,.183.137l.046.061v.061a.068.068,0,0,1,0,.038c.137.541-.716,1.523-1.378,3.046l-.091.221c-.838,2.208-.655,5.156,3.648,14.469,4.752,10.326,5.887,10.989,7.09,11.05.929.038,3.115-1.729,7.486-5.27a16.419,16.419,0,0,0,2.741-2.521c1.005-1.249,2.056-3.153,3.046-4.638h0c.762-1.3,1.432-2.589,2.193-3.884.373-.632.762-1.31,1.241-2.018a60.854,60.854,0,0,1,8.8-10.661l.32-.3a37.893,37.893,0,0,1,7.334.975Z" transform="translate(-81.285 -51.848)" fill="#98898d"/>
      <path id="Path_34" data-name="Path 34" d="M404.9,294.427c-4.1-1.424-8.56-3.366-8.377-5.209.107-1.173,2.026-1.477,4.143-2.833,6.382-4.089,7.364-13.037,7.615-12.946s-1.828,5.5-2.787,11.986A53.459,53.459,0,0,0,404.9,294.427Z" transform="translate(-94.556 -65.207)" fill="#c69c6d"/>
      <path id="Path_35" data-name="Path 35" d="M347.24,290.149l-75.658-1.919a4.181,4.181,0,0,0-1.592,1.165,4.112,4.112,0,0,0-.891,1.972q2.772,22.564,5.559,45.105l70.822,2.14,6.549-5.171Z" transform="translate(-64.171 -68.734)" fill="#c2bfc2"/>
      <path id="Path_36" data-name="Path 36" d="M292.67,395.729c-.236.373-1.622.937-3.046,2.231h0c-.129.129-.267.251-.4.388a9.452,9.452,0,0,0-.914,1.089,10.159,10.159,0,0,0-1.66,3.914h0l-.807-.16h0c-8.377-1.721-15.055-3.412-19.716-4.668l-.609-.168c-.921-.244-1.79-.487-2.612-.716h0c-2.285-.624-4.265-1.158-6.016-1.523-3.594-.762-6.26-.762-8.918.678a7.475,7.475,0,0,1-.952.411h0a8.819,8.819,0,0,1-3.549.457,6.908,6.908,0,0,1-2.483-.617h0c-1.15-.571-1.744-1.477-1.18-2.551a5.971,5.971,0,0,1,2.856-2.635,17.732,17.732,0,0,1,3.115-1.066h0c3.358-.914,5.978-.632,10.349-.1,7.92.975,12.946,1.6,16.129,2.216h.038a20.767,20.767,0,0,1,2.711.678h0c3.96,1.378,4.98,2.338,8.247,2.612a26.73,26.73,0,0,0,6.93-.472c1.47-.259,2.406-.457,2.5-.168A.167.167,0,0,1,292.67,395.729Z" transform="translate(-57.136 -93.051)" fill="#f2f2f2"/>
      <path id="Path_37" data-name="Path 37" d="M352.786,204.822h0a1.185,1.185,0,0,0-.076-.282l.236.472Z" transform="translate(-84.11 -48.776)" fill="#e5cfbf"/>
      <path id="Path_38" data-name="Path 38" d="M378.283,208.647a28.26,28.26,0,0,0-2.894,3.93c-3.122,5.14-2.688,6.526-5.384,9.641A33.8,33.8,0,0,1,365.2,226.3a74.382,74.382,0,0,1-6.2,4.31,30.854,30.854,0,0,1-3.191-3.625,26.812,26.812,0,0,1-2.285-3.549c-1-1.873-.868-3.305-2.285-6.351-1.234-2.658-1.576-2.5-2.285-4.333a18.536,18.536,0,0,1-.853-7.79c.107-.6.282-1.439.548-2.422.206-.762.388-1.325.419-1.424.335-1.036.762-3.6,1.386-9.489l.16.19-.236-.472a1.418,1.418,0,0,0,.076.282,15.6,15.6,0,0,1-3.229-2.78,17.515,17.515,0,0,1-4.074-9.732c-.4-3.206.259-3.808,1.363-11.324,1.394-9.5.67-10.73,2.4-13.2a13.243,13.243,0,0,1,10.357-5.376c10.311-.053,16.274,14.469,17.218,16.845a26.242,26.242,0,0,1,1.843,15.314,23.086,23.086,0,0,1-.861,3.1h0c-.129.99-1.34,10.5,1.576,14.911a5.835,5.835,0,0,0,3.16,2.719c1.637.434,3.046-.472,3.358-.053C384.131,202.761,380.758,205.784,378.283,208.647Z" transform="translate(-81.803 -35.581)" fill="#e5cfbf"/>
      <path id="Path_39" data-name="Path 39" d="M352.786,204.822h0a1.185,1.185,0,0,0-.076-.282l.236.472Z" transform="translate(-84.11 -48.776)" fill="#e5cfbf"/>
      <path id="Path_40" data-name="Path 40" d="M342.836,397.144q-7.356-.107-15.314.16h-.053c-2.818.1-5.689.228-8.613.4q-6.557.388-12.718,1.005h0c-1.919.183-3.808.388-5.666.6a9.333,9.333,0,0,1-.053-1.142,7.874,7.874,0,0,1,.761-3.221,7.713,7.713,0,0,1,1.173-1.8h0c.107-.129.221-.244.335-.358a9.328,9.328,0,0,1,3.739-2.285,7.338,7.338,0,0,1,.723-.2l-.693.046-2.5.168-6.93.472c2.414-4.645,5.163-9.5,8.278-14.469q2.635-4.226,5.293-8.049a28.6,28.6,0,0,0,8.628,4.7l.35.114.282.091.343.107c.579.168,1.142.312,1.706.442l.487.107a28.87,28.87,0,0,0,9.359.419,4.6,4.6,0,0,0,.084.617c.03.213.053.366.084.548s0,.137.038.213,0,.145,0,.213v.069h0a2.256,2.256,0,0,0,.084.442c.03.145.038.221.061.327.053.289.114.579.183.883a2.093,2.093,0,0,0,.061.282c.061.244.114.495.183.762l.091.381c.038.129.069.259.107.4s.061.244.1.366.076.282.122.426.084.267.122.4.084.274.129.411.084.282.13.419l.183.548c.076.221.152.442.236.663s.228.624.358.937c.053.145.114.3.175.442s.129.32.2.472l.183.426c.061.152.129.3.2.449s.122.274.19.411l.038.091v.046l.183.373c.061.137.13.282.206.419a.413.413,0,0,0,.038.084c.069.137.137.267.2.4h0c.145.289.3.571.449.853l.228.419.236.4.228.4c.084.129.16.267.236.4l.289.465.19.289q.236.373.48.762l.289.419c.084.129.175.259.267.381l.046.076h0l.251.343.3.4c.069.091.137.175.2.267l.084.107.388.495c.053.069.114.137.167.213a1.586,1.586,0,0,1,.107.129l.175.206.335.411.259.3c.19.228.381.442.571.647l.183.206.267.282.206.221.5.518h0Z" transform="translate(-70.832 -87.871)" fill="#e5cfbf"/>
      <path id="Path_41" data-name="Path 41" d="M334.845,376.36l-24.6,15.87a101.763,101.763,0,0,1,24.6-15.87Z" transform="translate(-73.982 -89.75)" fill="#9e8e89"/>
      <path id="Path_42" data-name="Path 42" d="M386.036,329.485a12.732,12.732,0,0,0-2.848,1.333,6.657,6.657,0,0,0-2.528,2.1c-1.127,1.858.152,3.351-.838,5.232a4.79,4.79,0,0,1-2.612,2.147q-1.074-10.357-2.14-20.729c3.975.762,7.075,2.285,8.087,4.059a9.6,9.6,0,0,1,1.005,2.193c.3,1.173.152,1.927.723,2.726a2.962,2.962,0,0,0,1.15.937Z" transform="translate(-89.442 -76.208)" fill="#e5cfbf"/>
      <path id="Path_43" data-name="Path 43" d="M261.252,344.459l69.908,2.285-68.972-2.285c15.063,5.133,23.15,9.793,27.811,13.3a132.682,132.682,0,0,0-7.821,11.727c-2.239,3.808-4.135,7.41-5.75,10.806a88.032,88.032,0,0,0-27.133-5.521c-8-.289-9.946.822-15.231-.762-13.586-4.044-19.594-17.066-19.96-17.881-1.774-4.021-4.569-10.418-2.285-17.241,4.348-12.946,22.892-14.995,24.727-15.17a36.691,36.691,0,0,1,22.846,5.742Q260.353,336.98,261.252,344.459Z" transform="translate(-50.307 -77.161)" fill="#bbcce2"/>
      <path id="Path_44" data-name="Path 44" d="M421,352.207h0a22.258,22.258,0,0,1-.465,4.333c-1.142,5.453-4.211,9.458-8.042,12.786l-.038.038-.3.259-.632.525-.175.137a86.571,86.571,0,0,1-8.057,5.574,73.453,73.453,0,0,1-11.088,5.772,77.382,77.382,0,0,1-10.235,3.488c-2.406.647-4.767,1.158-7.082,1.569-1.85.327-3.663.586-5.43.762h0a99.823,99.823,0,0,1-14.9.564c-.259-.244-.533-.51-.815-.762l-.175-.183h0l-.5-.518-.206-.221-.267-.282-.183-.206c-.19-.206-.381-.419-.571-.647l-.259-.3-.335-.411-.168-.206-.114-.129c-.053-.076-.114-.145-.168-.213l-.388-.495-.084-.107c-.061-.091-.129-.175-.2-.267l-.3-.4-.251-.343-.046-.076c-.091-.122-.183-.251-.267-.381l-.289-.419q-.244-.358-.48-.762l-.19-.289-.289-.465c-.076-.129-.152-.267-.236-.4l-.228-.4-.236-.4-.228-.419c-.152-.282-.3-.564-.449-.853h0c-.061-.129-.129-.259-.2-.4a.413.413,0,0,1-.038-.084c-.076-.137-.145-.282-.206-.419s-.091-.19-.137-.282l-.046-.091v-.046l-.038-.091c-.069-.137-.129-.274-.19-.411s-.137-.3-.2-.449l-.183-.426c-.069-.152-.137-.312-.2-.472s-.122-.3-.175-.442c-.129-.312-.244-.624-.358-.937s-.16-.442-.236-.663l-.183-.548c-.046-.137-.091-.282-.129-.419s-.091-.274-.129-.411-.084-.267-.122-.4-.084-.289-.122-.426-.069-.251-.1-.366-.069-.267-.107-.4l-.091-.381c-.069-.251-.122-.5-.183-.762a1.162,1.162,0,0,0-.061-.282c-.069-.3-.129-.594-.183-.883a2.724,2.724,0,0,0-.061-.327c-.015-.114-.053-.3-.084-.442h0v-.282a.424.424,0,0,0-.038-.213,3.235,3.235,0,0,1-.084-.548c-.023-.175-.061-.419-.084-.617l16.952-14.416,2.741-2.338h0l.312-.267q.685-.19,1.348-.434h0a21.08,21.08,0,0,0,3.435-1.523h0a11.545,11.545,0,0,0,3.046-2.406l.114-.145a7.372,7.372,0,0,0,1.249-2.14,10.1,10.1,0,0,0,.312-.975h0a13.023,13.023,0,0,0,.335-3.244v-.046h0a5.247,5.247,0,0,1,.5-1.927c.4-.845,1.051-1.614,3.724-2.764h.046c.472-.206,1.005-.419,1.607-.647h0c1.249-.472,2.8-1.005,4.744-1.622,5.049-1.607,7.577-2.406,8.963-2.528a34.347,34.347,0,0,1,12.877,1.736h0l1.447.434a19.846,19.846,0,0,1,2.467.815c5.079,2.467,8.963,7.615,10.875,13.54h0c.129.411.251.815.366,1.226l.107.4c.084.32.152.632.221.952a26.506,26.506,0,0,1,.541,3.541h0C420.988,350.616,421.018,351.377,421,352.207Z" transform="translate(-81.718 -77.988)" fill="#bbcce2"/>
      <path id="Path_45" data-name="Path 45" d="M347.222,353.285,327.216,370.3a28.4,28.4,0,0,1-21.155-5.978c-4.661-3.5-12.771-8.164-27.811-13.327Z" transform="translate(-66.353 -83.703)" fill="#838589"/>
      <path id="Path_46" data-name="Path 46" d="M379.517,344.194a27.194,27.194,0,0,1,30.126,2.528,34.33,34.33,0,0,0-14.949-2.993c-10.022.358-19.922,5.331-19.586,5.171A9.23,9.23,0,0,0,379.517,344.194Z" transform="translate(-89.449 -81.268)" fill="#828791" opacity="0.76"/>
      <path id="Path_47" data-name="Path 47" d="M234.5,338.647c.655,1.1,5.567-.853,8.971-1.843,10.258-2.97,18.338-.381,18.4-.921.114-1.005-28.778-4.813-28.976-3.678-.053.32,2.285.655,2.757,2.285C236.21,336.286,234.07,337.855,234.5,338.647Z" transform="translate(-55.536 -79.171)" fill="#828791" opacity="0.58"/>
      <path id="Path_48" data-name="Path 48" d="M262.035,336.983a38.268,38.268,0,0,0-10.928,1c-9.671,2.338-16.807,8.171-16.441,8.895.282.541,4.729-1.889,14.469-4.523,4.143-1.127,7.615-1.851,10.037-2.285.708.335,6.146,2.886,6.785,1.911S262.728,337.615,262.035,336.983Z" transform="translate(-55.957 -80.347)" fill="#8c8e94" opacity="0.38"/>
      <path id="Path_49" data-name="Path 49" d="M267.692,348.659a57.252,57.252,0,0,0-15.581-.632A48.451,48.451,0,0,0,237.97,351.3a68.31,68.31,0,0,1,14.621-2.528,55.432,55.432,0,0,1,15.52,1.455Z" transform="translate(-56.748 -82.931)" fill="#828791"/>
      <path id="Path_50" data-name="Path 50" d="M373.88,308.433a35.564,35.564,0,0,1,9.847.373,35.206,35.206,0,0,1,8.666,2.734,18.276,18.276,0,0,0-6.641.762c-2.094.663-3.046,1.416-5.925,2.566a41.777,41.777,0,0,1-5.216,1.691Z" transform="translate(-89.159 -73.508)" fill="#bbcce2"/>
      <path id="Path_51" data-name="Path 51" d="M349.3,184.642a6.633,6.633,0,0,1-1.013-.076c-2.285-.35-4.242-2.033-5.453-4.721a4.368,4.368,0,0,1-.564-3.191c.762-2.422,4.432-3.046,6.473-2.985,1.317,0,4.82.069,6.206,2.764h0c1.218,2.391.046,5.376-1.8,6.854a6.008,6.008,0,0,1-3.853,1.356Zm-.7-10.113c-1.957,0-4.95.624-5.506,2.384a3.691,3.691,0,0,0,.525,2.574c1.089,2.422,2.787,3.922,4.805,4.226a5.384,5.384,0,0,0,4.181-1.051c1.576-1.3,2.6-3.808,1.576-5.833-1.15-2.239-4.158-2.285-5.453-2.285Z" transform="translate(-81.589 -41.413)" fill="#1b1464"/>
      <path id="Path_52" data-name="Path 52" d="M372.135,183.958a8.682,8.682,0,0,1-5.049-2.049c-.655-.541-2.627-2.17-2.46-4.348.206-2.7,3.633-4.691,6.587-4.691h.061c.19,0,4.729.084,5.993,3.655a5.856,5.856,0,0,1-2.559,6.724A4.973,4.973,0,0,1,372.135,183.958Zm-.921-10.227c-2.521,0-5.559,1.683-5.727,3.891-.129,1.736,1.523,3.107,2.148,3.625s3.808,2.947,6.633,1.264a4.965,4.965,0,0,0,2.186-5.7c-1.066-3.046-5.018-3.084-5.194-3.084Z" transform="translate(-86.949 -41.224)" fill="#1b1464"/>
      <path id="Path_53" data-name="Path 53" d="M358.088,176.746l-.388-.762a8.9,8.9,0,0,1,3.137-.906,9.138,9.138,0,0,1,3.754.449l-.282.815a8.149,8.149,0,0,0-3.389-.4A7.867,7.867,0,0,0,358.088,176.746Z" transform="translate(-85.3 -41.742)" fill="#1b1464"/>
      <path id="Path_54" data-name="Path 54" d="M379.53,175.631l4.485-.891.5,1.675-3.64.929Z" transform="translate(-90.506 -41.67)" fill="#2e3192"/>
      <path id="Path_55" data-name="Path 55" d="M380.47,177.677l-1.95-2.483,5.552-1.1.762,2.475Zm-.4-1.911.762.937,2.932-.762-.3-.853Z" transform="translate(-90.265 -41.515)" fill="#1b1464"/>
      <path id="Path_56" data-name="Path 56" d="M587.713,263.22a109.233,109.233,0,0,1-8.826,16.266c-7.12,10.844-7.958,8.1-12.451,15.87-1.363,2.368-2.429,4.63-4.371,4.828-2.483.259-5.331-2.955-6.435-5.978-3.046-8.461,6.5-21.14,17.249-26.9a35.532,35.532,0,0,1,14.834-4.082Z" transform="translate(-132.364 -62.77)" fill="#006837"/>
      <path id="Path_57" data-name="Path 57" d="M594.33,235A108.846,108.846,0,0,1,606.1,220.714c9.077-9.283,9.344-6.443,15.23-13.213,1.79-2.071,3.267-4.082,5.209-3.914,2.49.221,4.7,3.929,5.186,7.1,1.348,8.887-10.4,19.518-22.084,23.135A35.571,35.571,0,0,1,594.33,235Z" transform="translate(-141.73 -48.546)" fill="#006837"/>
      <path id="Path_58" data-name="Path 58" d="M602.88,298a109.655,109.655,0,0,1-4.31,17.98c-4.12,12.314-5.6,9.9-7.912,18.536-.708,2.635-1.158,5.095-2.978,5.788-2.338.891-5.94-1.477-7.76-4.12-5.1-7.394.83-22.084,9.732-30.461A35.449,35.449,0,0,1,602.88,298Z" transform="translate(-137.844 -71.064)" fill="#006837"/>
      <path id="Path_59" data-name="Path 59" d="M622.8,341.44a108.894,108.894,0,0,1-4.333,17.987c-4.112,12.314-5.6,9.9-7.912,18.528-.708,2.643-1.15,5.1-2.978,5.8-2.33.891-5.94-1.477-7.76-4.12-5.1-7.394.83-22.084,9.732-30.461A35.449,35.449,0,0,1,622.8,341.44Z" transform="translate(-142.59 -81.423)" fill="#006837"/>
      <path id="Path_60" data-name="Path 60" d="M578.075,193.46c-4.9-1.79-13.091-5.673-18.787-14.012-4.942-7.219-7.417-16.936-5.331-18.17,2.582-1.523,12.063,10.212,12.565,10.837A69.772,69.772,0,0,1,578.075,193.46Z" transform="translate(-131.925 -38.427)" fill="#006837"/>
      <path id="Path_61" data-name="Path 61" d="M585.86,205.2a41.6,41.6,0,0,1,11.728-12.763c6.785-4.767,15.368-7.615,16.213-6.206s-6.092,7.265-11.042,10.661A63.443,63.443,0,0,1,585.86,205.2Z" transform="translate(-139.71 -44.323)" fill="#006837"/>
      <path id="Path_62" data-name="Path 62" d="M604.66,266.526c4.569-11.964,15.741-18.376,25.13-16.2,6.542,1.523,13.479,7.478,14.149,15.52.586,7.12-3.808,15.1-7.935,15.177-5.506.107-6.275-13.845-15.87-17.241C614.636,261.827,608.727,264.241,604.66,266.526Z" transform="translate(-144.193 -59.595)" fill="#006837"/>
      <path id="Path_63" data-name="Path 63" d="M626,317.186c4.569-11.964,15.741-18.376,25.13-16.2,6.542,1.523,13.479,7.478,14.142,15.52.594,7.12-3.808,15.109-7.928,15.185-5.506.1-6.275-13.852-15.87-17.249C635.976,312.487,630.067,314.9,626,317.186Z" transform="translate(-149.282 -71.676)" fill="#006837"/>
      <path id="Path_64" data-name="Path 64" d="M634.509,381.823a286.107,286.107,0,0,0-14.142-74.813c-8.7-26.09-16.464-36.431-24.841-62.087A272.163,272.163,0,0,1,582.42,169.38a238.777,238.777,0,0,0,10.342,59.331,323.1,323.1,0,0,0,11.423,30.354c9.085,21.665,11.111,21.544,17.591,37.429a262.153,262.153,0,0,1,14.949,53.749,269.164,269.164,0,0,1,3.45,31.581Z" transform="translate(-138.889 -40.391)" fill="#c7c1bf"/>
    </g>
  </g>
  <path id="Icon_ionic-ios-heart" data-name="Icon ionic-ios-heart" d="M24.75,3.938h-.07A8,8,0,0,0,18,7.594a8,8,0,0,0-6.68-3.656h-.07a7.949,7.949,0,0,0-7.875,7.945,17.115,17.115,0,0,0,3.361,9.33C10.969,27,18,32.063,18,32.063S25.031,27,29.264,21.213a17.115,17.115,0,0,0,3.361-9.33A7.949,7.949,0,0,0,24.75,3.938Z" transform="translate(331.611 100.999)" fill="#f08"/>
  <path id="Icon_ionic-ios-heart-2" data-name="Icon ionic-ios-heart" d="M24.75,3.938h-.07A8,8,0,0,0,18,7.594a8,8,0,0,0-6.68-3.656h-.07a7.949,7.949,0,0,0-7.875,7.945,17.115,17.115,0,0,0,3.361,9.33C10.969,27,18,32.063,18,32.063S25.031,27,29.264,21.213a17.115,17.115,0,0,0,3.361-9.33A7.949,7.949,0,0,0,24.75,3.938Z" transform="translate(207.625 122.063)" fill="#f08"/>
  <path id="Icon_ionic-ios-heart-3" data-name="Icon ionic-ios-heart" d="M17.217,3.938h-.046a5.181,5.181,0,0,0-4.326,2.368A5.181,5.181,0,0,0,8.52,3.938H8.475a5.148,5.148,0,0,0-5.1,5.145,11.084,11.084,0,0,0,2.177,6.042,38.142,38.142,0,0,0,7.294,7.026,38.142,38.142,0,0,0,7.294-7.026,11.084,11.084,0,0,0,2.177-6.042A5.148,5.148,0,0,0,17.217,3.938Z" transform="translate(236.875 53.529)" fill="#f08"/>
  <path id="Icon_ionic-ios-heart-4" data-name="Icon ionic-ios-heart" d="M17.217,3.938h-.046a5.181,5.181,0,0,0-4.326,2.368A5.181,5.181,0,0,0,8.52,3.938H8.475a5.148,5.148,0,0,0-5.1,5.145,11.084,11.084,0,0,0,2.177,6.042,38.142,38.142,0,0,0,7.294,7.026,38.142,38.142,0,0,0,7.294-7.026,11.084,11.084,0,0,0,2.177-6.042A5.148,5.148,0,0,0,17.217,3.938Z" transform="translate(182.096 103.849)" fill="#f08"/>
  <path id="Icon_ionic-ios-heart-5" data-name="Icon ionic-ios-heart" d="M17.217,3.938h-.046a5.181,5.181,0,0,0-4.326,2.368A5.181,5.181,0,0,0,8.52,3.938H8.475a5.148,5.148,0,0,0-5.1,5.145,11.084,11.084,0,0,0,2.177,6.042,38.142,38.142,0,0,0,7.294,7.026,38.142,38.142,0,0,0,7.294-7.026,11.084,11.084,0,0,0,2.177-6.042A5.148,5.148,0,0,0,17.217,3.938Z" transform="translate(277.096 24.456)" fill="#f08"/>
  <path id="Icon_ionic-ios-heart-6" data-name="Icon ionic-ios-heart" d="M17.217,3.938h-.046a5.181,5.181,0,0,0-4.326,2.368A5.181,5.181,0,0,0,8.52,3.938H8.475a5.148,5.148,0,0,0-5.1,5.145,11.084,11.084,0,0,0,2.177,6.042,38.142,38.142,0,0,0,7.294,7.026,38.142,38.142,0,0,0,7.294-7.026,11.084,11.084,0,0,0,2.177-6.042A5.148,5.148,0,0,0,17.217,3.938Z" transform="translate(163.154 62.636)" fill="#f08"/>
  <path id="Icon_ionic-ios-thumbs-up" data-name="Icon ionic-ios-thumbs-up" d="M30.326,27.337A2.854,2.854,0,0,0,31.5,25.13a3.087,3.087,0,0,0-.766-2.046c-.042-.084-.077-.162-.112-.239l-.014-.077a.918.918,0,0,1,.141-.7,3.082,3.082,0,0,0,.408-1.807,2.136,2.136,0,0,0-.682-1.631,1.341,1.341,0,0,1-.288-1.287,2.712,2.712,0,0,0-.577-2.658c-.738-.83-1.427-.928-3.263-.823-1.266.077-3.9.485-5.639.759-.71.113-1.329.211-1.519.225-.893.091-1.069,0-1.153-.345a2.28,2.28,0,0,1,.345-.914,15.079,15.079,0,0,0,1.02-2.517c.71-2.334.633-4.866-.19-6.342A2.3,2.3,0,0,0,17.36,3.382a2.8,2.8,0,0,0-1.962.555c-.239.281-.162.816-.436,1.884a20.5,20.5,0,0,1-.844,2.953c-.527,1.167-2.791,3.171-4.008,4.247-.288.253-.534.471-.71.64a14.493,14.493,0,0,0-1.793,2.3,12.239,12.239,0,0,1-.963,1.3,2.54,2.54,0,0,1-1.568.766.564.564,0,0,0-.562.563V29.805a.582.582,0,0,0,.584.584,11.08,11.08,0,0,1,4.669.83,12.151,12.151,0,0,0,3.262.851,67.537,67.537,0,0,0,7.917.57,35.041,35.041,0,0,0,3.98-.274c2.18-.253,4.514-.759,5.288-2.6a1.986,1.986,0,0,0-.035-1.666.553.553,0,0,1-.056-.183A.6.6,0,0,1,30.326,27.337Z" transform="translate(303.486 57.669)" fill="#005dff"/>
  <path id="Icon_ionic-ios-thumbs-up-2" data-name="Icon ionic-ios-thumbs-up" d="M24.206,21.658a2.178,2.178,0,0,0,.9-1.684,2.355,2.355,0,0,0-.585-1.561c-.032-.064-.059-.123-.086-.182l-.011-.059a.7.7,0,0,1,.107-.536,2.351,2.351,0,0,0,.311-1.379,1.63,1.63,0,0,0-.52-1.244,1.023,1.023,0,0,1-.22-.982A2.069,2.069,0,0,0,23.659,12c-.563-.633-1.089-.708-2.489-.628-.966.059-2.977.37-4.3.579-.542.086-1.014.161-1.159.172-.681.07-.815,0-.88-.263a1.739,1.739,0,0,1,.263-.7,11.5,11.5,0,0,0,.778-1.92,6.738,6.738,0,0,0-.145-4.838,1.753,1.753,0,0,0-1.411-1.025,2.134,2.134,0,0,0-1.5.424c-.182.215-.123.622-.333,1.438A15.64,15.64,0,0,1,11.841,7.5a15.417,15.417,0,0,1-3.058,3.24c-.22.193-.408.359-.542.488a11.057,11.057,0,0,0-1.368,1.754,9.337,9.337,0,0,1-.735.992,1.938,1.938,0,0,1-1.2.585.43.43,0,0,0-.429.429V23.54a.444.444,0,0,0,.445.445,8.453,8.453,0,0,1,3.562.633,9.27,9.27,0,0,0,2.489.649,51.524,51.524,0,0,0,6.04.434,26.733,26.733,0,0,0,3.036-.209c1.663-.193,3.444-.579,4.034-1.985a1.515,1.515,0,0,0-.027-1.271.422.422,0,0,1-.043-.139A.454.454,0,0,1,24.206,21.658Z" transform="translate(254.678 -3.382)" fill="#005dff"/>
  <path id="Icon_ionic-ios-thumbs-up-3" data-name="Icon ionic-ios-thumbs-up" d="M30.326,27.337A2.854,2.854,0,0,0,31.5,25.13a3.087,3.087,0,0,0-.766-2.046c-.042-.084-.077-.162-.112-.239l-.014-.077a.918.918,0,0,1,.141-.7,3.082,3.082,0,0,0,.408-1.807,2.136,2.136,0,0,0-.682-1.631,1.341,1.341,0,0,1-.288-1.287,2.712,2.712,0,0,0-.577-2.658c-.738-.83-1.427-.928-3.263-.823-1.266.077-3.9.485-5.639.759-.71.113-1.329.211-1.519.225-.893.091-1.069,0-1.153-.345a2.28,2.28,0,0,1,.345-.914,15.079,15.079,0,0,0,1.02-2.517c.71-2.334.633-4.866-.19-6.342A2.3,2.3,0,0,0,17.36,3.382a2.8,2.8,0,0,0-1.962.555c-.239.281-.162.816-.436,1.884a20.5,20.5,0,0,1-.844,2.953c-.527,1.167-2.791,3.171-4.008,4.247-.288.253-.534.471-.71.64a14.493,14.493,0,0,0-1.793,2.3,12.239,12.239,0,0,1-.963,1.3,2.54,2.54,0,0,1-1.568.766.564.564,0,0,0-.562.563V29.805a.582.582,0,0,0,.584.584,11.08,11.08,0,0,1,4.669.83,12.151,12.151,0,0,0,3.262.851,67.537,67.537,0,0,0,7.917.57,35.041,35.041,0,0,0,3.98-.274c2.18-.253,4.514-.759,5.288-2.6a1.986,1.986,0,0,0-.035-1.666.553.553,0,0,1-.056-.183A.6.6,0,0,1,30.326,27.337Z" transform="translate(186.406 24.827)" fill="#005dff"/>
  <path id="Icon_ionic-ios-thumbs-up-4" data-name="Icon ionic-ios-thumbs-up" d="M17.42,15.36a1.427,1.427,0,0,0,.587-1.1,1.543,1.543,0,0,0-.383-1.023c-.021-.042-.039-.081-.056-.12l-.007-.039a.459.459,0,0,1,.07-.352,1.541,1.541,0,0,0,.2-.9A1.068,1.068,0,0,0,17.494,11a.67.67,0,0,1-.144-.643,1.356,1.356,0,0,0-.288-1.329c-.369-.415-.714-.464-1.631-.411-.633.039-1.951.243-2.82.38-.355.056-.664.105-.759.113-.446.046-.534,0-.577-.172a1.14,1.14,0,0,1,.172-.457,7.539,7.539,0,0,0,.51-1.259,4.416,4.416,0,0,0-.095-3.171,1.149,1.149,0,0,0-.925-.671,1.4,1.4,0,0,0-.981.278c-.12.141-.081.408-.218.942a10.251,10.251,0,0,1-.422,1.477,10.1,10.1,0,0,1-2,2.123c-.144.127-.267.236-.355.32a7.247,7.247,0,0,0-.9,1.15,6.119,6.119,0,0,1-.482.65,1.27,1.27,0,0,1-.784.383.282.282,0,0,0-.281.281v5.607a.291.291,0,0,0,.292.292A5.54,5.54,0,0,1,7.14,17.3a6.076,6.076,0,0,0,1.631.425,33.769,33.769,0,0,0,3.959.285,17.521,17.521,0,0,0,1.99-.137c1.09-.127,2.257-.38,2.644-1.3a.993.993,0,0,0-.018-.833.276.276,0,0,1-.028-.091A.3.3,0,0,1,17.42,15.36Z" transform="translate(214.365 86.926)" fill="#005dff"/>
</svg>
