<svg xmlns="http://www.w3.org/2000/svg" width="37.033" height="37.025" viewBox="0 0 37.033 37.025">
  <path id="Icon_awesome-instagram" data-name="Icon awesome-instagram" d="M18.515,11.257a9.493,9.493,0,1,0,9.493,9.493A9.478,9.478,0,0,0,18.515,11.257Zm0,15.664a6.172,6.172,0,1,1,6.172-6.172A6.183,6.183,0,0,1,18.515,26.922Zm12.1-16.053A2.214,2.214,0,1,1,28.4,8.655,2.209,2.209,0,0,1,30.611,10.869ZM36.9,13.116c-.14-2.966-.818-5.593-2.991-7.758s-4.792-2.842-7.758-2.991c-3.057-.173-12.219-.173-15.276,0-2.958.14-5.585.818-7.758,2.982S.274,10.142.125,13.108c-.173,3.057-.173,12.219,0,15.276.14,2.966.818,5.593,2.991,7.758s4.792,2.842,7.758,2.991c3.057.173,12.219.173,15.276,0,2.966-.14,5.593-.818,7.758-2.991s2.842-4.792,2.991-7.758c.173-3.057.173-12.211,0-15.268ZM32.949,31.664a6.248,6.248,0,0,1-3.519,3.519c-2.437.967-8.22.744-10.914.744s-8.485.215-10.914-.744a6.248,6.248,0,0,1-3.519-3.519c-.967-2.437-.744-8.22-.744-10.914s-.215-8.485.744-10.914A6.248,6.248,0,0,1,7.6,6.317c2.437-.967,8.22-.744,10.914-.744S27,5.359,29.429,6.317a6.248,6.248,0,0,1,3.519,3.519c.967,2.437.744,8.22.744,10.914S33.915,29.235,32.949,31.664Z" transform="translate(0.005 -2.238)" fill="#dc88ff"/>
</svg>
