<svg xmlns="http://www.w3.org/2000/svg" width="36.75" height="42.301" viewBox="0 0 36.75 42.301">
  <path id="Icon_simple-tiktok" data-name="Icon simple-tiktok" d="M21.67.035C23.978,0,26.27.018,28.561,0a10.978,10.978,0,0,0,3.084,7.35A12.43,12.43,0,0,0,39.118,10.5v7.1a18.865,18.865,0,0,1-7.4-1.71,21.776,21.776,0,0,1-2.855-1.639c-.018,5.146.018,10.293-.035,15.422a13.462,13.462,0,0,1-2.379,6.944A13.131,13.131,0,0,1,16.03,42.282a12.852,12.852,0,0,1-7.191-1.815A13.291,13.291,0,0,1,2.405,30.4c-.035-.881-.053-1.762-.018-2.626A13.269,13.269,0,0,1,17.774,16c.035,2.608-.071,5.217-.071,7.825a6.047,6.047,0,0,0-7.72,3.736A6.992,6.992,0,0,0,9.737,30.4a6,6,0,0,0,6.169,5.058,5.921,5.921,0,0,0,4.882-2.838,4.067,4.067,0,0,0,.723-1.868c.176-3.155.106-6.292.123-9.447.018-7.1-.018-14.188.035-21.273Z" transform="translate(-2.369)" fill="#dc88ff"/>
</svg>
