<svg xmlns="http://www.w3.org/2000/svg" width="42.3" height="34.355" viewBox="0 0 42.3 34.355">
  <path id="Icon_awesome-twitter" data-name="Icon awesome-twitter" d="M37.952,11.943c.027.376.027.752.027,1.127,0,11.461-8.723,24.666-24.666,24.666A24.5,24.5,0,0,1,0,33.844a17.935,17.935,0,0,0,2.094.107,17.362,17.362,0,0,0,10.763-3.7,8.685,8.685,0,0,1-8.106-6.012,10.932,10.932,0,0,0,1.637.134,9.169,9.169,0,0,0,2.281-.3,8.67,8.67,0,0,1-6.952-8.508v-.107a8.731,8.731,0,0,0,3.919,1.1A8.682,8.682,0,0,1,2.952,4.964a24.642,24.642,0,0,0,17.875,9.072,9.787,9.787,0,0,1-.215-1.986,8.678,8.678,0,0,1,15-5.932,17.068,17.068,0,0,0,5.5-2.094A8.646,8.646,0,0,1,37.308,8.8,17.379,17.379,0,0,0,42.3,7.46a18.636,18.636,0,0,1-4.348,4.482Z" transform="translate(0 -3.381)" fill="#dc88ff"/>
</svg>
